<svg id="Capa_1" data-name="Capa 1" xmlns="http://www.w3.org/2000/svg" viewBox="0 0 1595.23 1564.57"><defs><style>.cls-1{fill:#9160a5;}</style></defs><path class="cls-1" d="M298.61,830.35c-6.88-6.3-16.46-7.76-23.58-3.93-10.37,5.56-13.67,21.36-5.62,30.32,6.9,7.67,20.39,8.37,29.2,0l31.82.85L285.7,916.25c-6-6.93-14.87-17.25-25.41-30.1-11.2-13.65-12.74-16-14.22-18.8-2.78-5.2-13.77-25.75-5.69-48.37,1.39-3.89,7.73-21.65,26.79-29.62,2.26-1,21.25-8.51,40.41,2.09a47.63,47.63,0,0,1,21.35,25.42l32.18-.34c-1.62-6.54-8.24-30-31.07-45.67-22.33-15.37-50.89-17-73.74-7.11a77,77,0,0,0-33.69,28.82,82.08,82.08,0,0,0-12.19,37.08,84.38,84.38,0,0,0,7,40.85A268,268,0,0,0,236.46,900c4.17,5.63,8.13,10.84,19.84,24q15.52,17.41,31.07,34.81c9.07-9.88,18.37-20.72,27.7-32.56a565.12,565.12,0,0,0,36.56-52.28,98.18,98.18,0,0,0,14-41.31Z"/></svg>