<svg id="Capa_2" data-name="Capa 2" xmlns="http://www.w3.org/2000/svg" viewBox="0 0 789.76 439.23"><defs><style>.cls-1{fill:none;}.cls-2,.cls-6{fill:#cf142e;}.cls-3,.cls-4{fill:#f15a24;stroke:#cf142e;stroke-miterlimit:10;}.cls-3{stroke-width:52px;}.cls-4{stroke-width:56px;}.cls-5{font-size:168px;fill:#a6ddd9;}.cls-5,.cls-6{font-family:ConthraxSb-Regular, Conthrax;}.cls-6{font-size:63px;}.cls-7{letter-spacing:-0.01em;}</style></defs><path class="cls-1" d="M267.44,210.83C246,248.58,167.17,346.75,167.17,346.75S84,249.51,72,216.12C62.77,190.39,63,175,63,159c0-49.23,52.86-100.11,104.17-96.38C228.45,67.1,268,114.45,273,159.57,274.72,174.89,274.8,197.92,267.44,210.83Z"/><path class="cls-1" d="M267.44,210.83C246,248.58,167.17,346.75,167.17,346.75S84,249.51,72,216.12C62.77,190.39,63,175,63,159c0-49.23,52.86-100.11,104.17-96.38C228.45,67.1,268,114.45,273,159.57,274.72,174.89,274.8,197.92,267.44,210.83Z"/><path class="cls-2" d="M270.9,160.69c1.58,15.3,1.49,37.54-5.69,50.14-21.49,37.75-100.27,135.92-100.27,135.92S81.73,249.51,69.76,216.12c-9.21-25.73-9-41.13-9-57.1,0-49.23,52.86-100.11,104.17-96.38,45.49,3.31,79,30.27,95.3,62.4h76.64C319.93,58.69,262.79-4.49,165.5.25,50.32,5.87-1.79,83.86.05,160.13c3.34,138.71,166,279.1,166,279.1S345.18,259,342.12,160.69Z"/><g id="Capa_3" data-name="Capa 3"><path class="cls-3" d="M172.74,186.66h0Z"/><circle class="cls-4" cx="166.83" cy="188.31" r="12.26"/></g><text class="cls-5" transform="translate(343.58 281.64)">GPS</text><text class="cls-6" transform="translate(353.41 330.93) scale(0.82 1)"><tspan class="cls-7">L</tspan><tspan x="49.83" y="0">ocator</tspan></text></svg>