<svg id="Capa_2" data-name="Capa 2" xmlns="http://www.w3.org/2000/svg" viewBox="0 0 656.22 394.23"><defs><style>.cls-1,.cls-3{fill:none;}.cls-2,.cls-7,.cls-8{fill:#cf142e;}.cls-3,.cls-4{stroke:#cf142e;stroke-miterlimit:10;}.cls-3{stroke-width:52px;}.cls-4{fill:#f15a24;stroke-width:56px;}.cls-5,.cls-6,.cls-7,.cls-8{isolation:isolate;}.cls-5{font-size:118px;fill:#a6ddd9;}.cls-5,.cls-7,.cls-8{font-family:ConthraxSb-Regular, Conthrax;}.cls-7,.cls-8{font-size:37px;}.cls-7{letter-spacing:-0.01em;}</style></defs><path class="cls-1" d="M240,189.23c-19.29,33.89-90,122-90,122S75.35,224,64.61,194c-8.27-23.09-8.07-36.91-8.07-51.25,0-44.18,47.45-89.85,93.5-86.5,55,4,90.5,46.5,95,87C246.57,157,246.64,177.68,240,189.23Z"/><path class="cls-1" d="M240,189.23c-19.29,33.89-90,122-90,122S75.35,224,64.61,194c-8.27-23.09-8.07-36.91-8.07-51.25,0-44.18,47.45-89.85,93.5-86.5,55,4,90.5,46.5,95,87C246.57,157,246.64,177.68,240,189.23Z"/><path class="cls-2" d="M243.14,144.23c1.43,13.74,1.34,33.69-5.1,45-19.29,33.89-90,122-90,122S73.35,224,62.61,194c-8.27-23.09-8.07-36.91-8.07-51.25,0-44.18,47.45-89.85,93.5-86.5,40.83,3,70.9,27.16,85.53,56h68.8C287.15,52.68,235.86-4,148.54.23,45.16,5.23-1.61,75.23,0,143.73c3,124.5,149,250.5,149,250.5s160.78-161.77,158-250Z"/><line class="cls-3" x1="155.04" y1="170.23" x2="263.04" y2="170.23"/><circle class="cls-4" cx="147.04" cy="167.23" r="11"/><text class="cls-5" transform="translate(313.58 205.4) scale(1.09 1)">GPS</text><g class="cls-6"><text class="cls-7" transform="translate(321.48 233.21) scale(1.07 1)">L</text><text class="cls-8" transform="translate(352.8 233.21) scale(1.07 1)">ocator</text></g></svg>