<svg id="Capa_2" data-name="Capa 2" xmlns="http://www.w3.org/2000/svg" viewBox="0 0 1000 687.55"><defs><style>.cls-1{fill:none;}.cls-2,.cls-6{fill:#cf142e;}.cls-3,.cls-4{fill:#f15a24;stroke:#cf142e;stroke-miterlimit:10;}.cls-3{stroke-width:52px;}.cls-4{stroke-width:56px;}.cls-5{font-size:168px;fill:#a6ddd9;}.cls-5,.cls-6{font-family:ConthraxSb-Regular, Conthrax;}.cls-6{font-size:63px;}.cls-7{letter-spacing:-0.01em;}</style></defs><path class="cls-1" d="M334.4,247.15c-21.49,37.76-100.27,135.93-100.27,135.93S150.91,285.83,139,252.44c-9.22-25.72-9-41.12-9-57.1,0-49.22,52.87-100.1,104.18-96.37C295.41,103.42,335,150.78,340,195.9,341.68,211.22,341.75,234.25,334.4,247.15Z"/><path class="cls-1" d="M334.4,247.15c-21.49,37.76-100.27,135.93-100.27,135.93S150.91,285.83,139,252.44c-9.22-25.72-9-41.12-9-57.1,0-49.22,52.87-100.1,104.18-96.37C295.41,103.42,335,150.78,340,195.9,341.68,211.22,341.75,234.25,334.4,247.15Z"/><path class="cls-2" d="M337.86,197c1.58,15.31,1.49,37.54-5.69,50.14C310.68,284.91,231.9,383.08,231.9,383.08s-83.22-97.25-95.18-130.64c-9.22-25.72-9-41.12-9-57.1,0-49.22,52.86-100.1,104.17-96.37,45.49,3.31,79,30.26,95.29,62.39h76.65C386.89,95,329.75,31.83,232.46,36.58,117.28,42.19,65.17,120.18,67,196.46c3.35,138.71,166,279.09,166,279.09S412.14,295.31,409.08,197Z"/><line class="cls-3" x1="239.7" y1="222.98" x2="360.03" y2="222.98"/><circle class="cls-4" cx="233.78" cy="224.64" r="12.26"/><text class="cls-5" transform="translate(410.54 319.97)">GPS</text><text class="cls-6" transform="translate(420.37 369.25) scale(0.82 1)"><tspan class="cls-7">L</tspan><tspan x="49.83" y="0">ocator</tspan></text></svg>