<svg id="Capa_2" data-name="Capa 2" xmlns="http://www.w3.org/2000/svg" viewBox="0 0 1000 687.55"><defs><style>.cls-1{fill:none;}.cls-2,.cls-6{fill:#cf142e;}.cls-3,.cls-4{fill:#f15a24;stroke:#cf142e;stroke-miterlimit:10;}.cls-3{stroke-width:52px;}.cls-4{stroke-width:56px;}.cls-5{font-size:118px;fill:#a6ddd9;}.cls-5,.cls-6{font-family:ConthraxSb-Regular, Conthrax;}.cls-6{font-size:37px;letter-spacing:-0.01em;}.cls-7{letter-spacing:0em;}</style></defs><path class="cls-1" d="M343,255.55c-19.29,33.89-90,122-90,122s-74.69-87.28-85.43-117.25c-8.27-23.09-8.07-36.91-8.07-51.25,0-44.18,47.45-89.85,93.5-86.5,55,4,90.5,46.5,95,87C349.53,223.3,349.6,244,343,255.55Z"/><path class="cls-1" d="M343,255.55c-19.29,33.89-90,122-90,122s-74.69-87.28-85.43-117.25c-8.27-23.09-8.07-36.91-8.07-51.25,0-44.18,47.45-89.85,93.5-86.5,55,4,90.5,46.5,95,87C349.53,223.3,349.6,244,343,255.55Z"/><path class="cls-2" d="M346.1,210.55c1.43,13.74,1.34,33.69-5.1,45-19.29,33.89-90,122-90,122s-74.69-87.28-85.43-117.25c-8.27-23.09-8.07-36.91-8.07-51.25,0-44.18,47.45-89.85,93.5-86.5,40.83,3,70.9,27.16,85.53,56h68.8C390.11,119,338.82,62.29,251.5,66.55c-103.38,5-150.15,75-148.5,143.5,3,124.5,149,250.5,149,250.5s160.78-161.77,158-250Z"/><line class="cls-3" x1="258" y1="236.55" x2="366" y2="236.55"/><circle class="cls-4" cx="250" cy="233.55" r="11"/><text class="cls-5" transform="translate(416.54 271.72) scale(1.09 1)">GPS</text><text class="cls-6" transform="translate(424.44 299.53) scale(1.07 1)">L<tspan class="cls-7" x="29.27" y="0">ocator</tspan></text></svg>