<svg xmlns="http://www.w3.org/2000/svg" viewBox="0 0 340.8 442.03"><defs><style>.cls-1{fill:none;}.cls-2{fill:#cf142e;}.cls-3,.cls-4{fill:#f15a24;stroke:#cf142e;stroke-miterlimit:10;}.cls-3{stroke-width:52px;}.cls-4{stroke-width:56px;}</style></defs><g id="Capa_2" data-name="Capa 2"><g id="Capa_2-2" data-name="Capa 2"><g id="Capa_3" data-name="Capa 3"><path class="cls-1" d="M266.08,213.63C244.58,251.39,165.8,349.55,165.8,349.55S82.59,252.31,70.62,218.92c-31.15-72.18,17-154.32,95.19-153.48C247.32,72.6,290.4,148.8,266.08,213.63Z"/><path class="cls-1" d="M266.08,213.63C244.58,251.39,165.8,349.55,165.8,349.55S82.59,252.31,70.62,218.92c-31.15-72.18,17-154.32,95.19-153.48C247.32,72.6,290.4,148.8,266.08,213.63Z"/><path class="cls-2" d="M269.53,163.49c1.59,15.31,1.5,37.54-5.68,50.14-21.49,37.76-100.28,135.92-100.28,135.92S80.36,252.31,68.39,218.92C15.18,82.27,194.25,5.15,258.87,127.84h76.65C234-158.59-248.62,75.69,164.69,442c0,0,179.13-180.24,176.07-278.54Z"/><path class="cls-3" d="M171.37,189.46h0Z"/><path class="cls-4" d="M177.72,191.12c-.08,16-24.45,16-24.52,0C153.28,175.09,177.65,175.09,177.72,191.12Z"/></g></g></g></svg>