<svg xmlns="http://www.w3.org/2000/svg" viewBox="0 0 260 260"><defs><style>.cls-1{fill:none;}.cls-2,.cls-3{fill:#cf0a2c;}.cls-2{stroke:#cf0a2c;stroke-miterlimit:10;}</style></defs><title>Isotipo_MM_v110</title><g id="Capa_2" data-name="Capa 2"><g id="Isotipos"><g id="Monitoreo_Movilidad_v110" data-name="Monitoreo &amp; Movilidad v110"><rect class="cls-1" width="260" height="260"/><path id="trazoLargo" class="cls-2" d="M129.231,10.846a119.6,119.6,0,0,0-83.1,33.427q-.95.912-1.878,1.848L64.548,66.414a91.283,91.283,0,1,1,49.163,155.025L90.644,244.506a120.014,120.014,0,1,0,38.586-233.66Z"/><path class="cls-3" d="M174.4,109.014a43.129,43.129,0,0,0-5.19-13.971,47.075,47.075,0,0,0-10.326-12.208,58.205,58.205,0,0,0-6.956-4.935,48.057,48.057,0,0,0-7.372-4.087,39.847,39.847,0,0,0-9.068-2.591,49.022,49.022,0,0,0-12.955-.648,48.471,48.471,0,0,0-11.659,2.591,50.6,50.6,0,0,0-8.673,4.048,69.334,69.334,0,0,0-9.138,6.526c-.188.162-.34.3-.475.419A44.837,44.837,0,0,0,89,87.781a43.948,43.948,0,0,0-10.245,20.262c-.552,2.572-.6,5.241-.887,7.865-.024.217.114,4.4.242,5.659a64.735,64.735,0,0,0,5.846,19.93,160.255,160.255,0,0,0,13.059,23.32L65.042,196.787A91.306,91.306,0,0,1,48.663,87.421L27.857,66.616a120.03,120.03,0,0,0,37.781,166l3.3-3.3,43.9-43.511c3.554,4.249,7.208,8.427,10.8,12.65a23.561,23.561,0,0,0,2.071,1.93h1.6c2.148-2.278,4.455-4.441,6.413-6.856,6.148-7.586,12.435-15.092,18.169-22.954,4.775-6.547,15.541-22.522,20.376-37.474a53.558,53.558,0,0,0,2.616-13.271A42.934,42.934,0,0,0,174.4,109.014ZM130.449,132.56a14.392,14.392,0,0,1-.321,1.7,4.316,4.316,0,0,0-.173,2.058,2.006,2.006,0,0,1-.121.924,5.411,5.411,0,0,0-.362,2.3,2.045,2.045,0,0,0,.626,1.367,25.319,25.319,0,0,1-3.65.251,26.872,26.872,0,0,1-12.888-3.358,25.368,25.368,0,0,1-5.64-4.275,24.092,24.092,0,0,1-4.342-5.994,22.905,22.905,0,0,1,1.534-23.455,24.137,24.137,0,0,1,2.114-2.665,3.027,3.027,0,0,1,.492,1.059H106.5l1.416,1.085c-.444.356-.866.65-1.233,1s-.361.646.058.993a6.962,6.962,0,0,0,.981.579.818.818,0,0,1,.162,1.378c-.057.059-.106.147-.175.168-.524.165-.66.708-1,1.048-.175.173-.179.519-.35,1.085,1.195-.906,2.116-1.753,3.489-1.445.354-.694.677-1.34,1.013-1.977.09-.17.207-.437.339-.454a2.5,2.5,0,0,1,2.138.366,6.129,6.129,0,0,1,1.45,1.721,7.127,7.127,0,0,0,1.584,2.288,3.09,3.09,0,0,1,.838,1.972,6.6,6.6,0,0,1,.01,1.589,2.015,2.015,0,0,0,.713,1.67,3.8,3.8,0,0,1,.984,1.061,9.6,9.6,0,0,0,2.49,3.13,4.368,4.368,0,0,0,1.75,1.084,12.974,12.974,0,0,0,1.73.265.915.915,0,0,1,.43.136A11.192,11.192,0,0,1,127,122.715a1.412,1.412,0,0,0,.877.561,4.867,4.867,0,0,0,.884.01c-.1.574-.151,1.069-.266,1.549a3.019,3.019,0,0,0,.223,2.77,5.635,5.635,0,0,0,1.342,1.771,3.414,3.414,0,0,1,.645,2.061C130.355,131.754,130.5,132.176,130.449,132.56Zm17.88-3.166a24.922,24.922,0,0,1-6.769,7.1,26.2,26.2,0,0,1-10.008,4.174c-.045-.038-.09-.075-.133-.113a.629.629,0,0,1-.2-.754c.2-.509.46-1,.7-1.493l-.509-.211a15.241,15.241,0,0,1,3.314-4.014c.288-.29.572-.583.867-.865a1.33,1.33,0,0,0,.525-1.019,1.182,1.182,0,0,1,.971-1.08,1.873,1.873,0,0,0,1.435-1.64,4.246,4.246,0,0,1,.538-1.864,2.342,2.342,0,0,0,.214-1l-.866-.879a2.334,2.334,0,0,1-.6-.008,14.671,14.671,0,0,1-1.619-.524c-.344-.14-.3-.51-.378-.819a1.21,1.21,0,0,0-.586-.6c-.927-.515-1.852-1.043-2.822-1.466a2.791,2.791,0,0,0-3.093.289c-.218.181-.364.273-.607.045-.076-.071-.278-.052-.407-.015-.511.144-.75.019-.774-.438-.019-.357,0-.717,0-1.085l-1.228-.076a11.764,11.764,0,0,0-.017-1.306c-.016-.135-.228-.247-.363-.381l-.427.937a.893.893,0,0,1-1.3-.723,2.933,2.933,0,0,1,0-1.147c.053-.352.371-.505.66-.69a3.291,3.291,0,0,1,2.005-.31c.49.425.944.82,1.4,1.21.024.02.079,0,.141,0l-.293-1.947c.38-.516,1.222-.822,1.454-1.672.034-.124.217-.239.357-.295a1.233,1.233,0,0,0,.822-1.165c.064-.537.282-1.157,1.12-1.07.259.027.547-.211.777-.309.236-.521-.534-.891-.1-1.377,1.759-.012,1.891-.137,1.77-1.665-.517-.588-1.2-1-1.251-1.954-.035-.653-.417-.718-.972-.339-.571.39-.568.388-1.012-.21-.1-.13-.309-.22-.33-.351-.083-.514-.628-.509-.892-.827-.118-.142-.52-.047-.744-.057-.461.59-.142,1.144-.041,1.646a3.112,3.112,0,0,1-.594,2.668,4.39,4.39,0,0,1-.625.469,8.881,8.881,0,0,0-.349-1.556,1.415,1.415,0,0,0-.61-.866,11.289,11.289,0,0,0-1.394-.791c-.628-.242-.76-.62-.626-1.307a12.748,12.748,0,0,1,1.773-1.427,3.592,3.592,0,0,0,1.834-3.754c-.5.1-.9-.075-1.336.243a1.18,1.18,0,0,1-1.766-.213c-.022-.028-.145.023-.21.035l-.415,1.207-1.391-.267a1.966,1.966,0,0,0-1.183.332c-.722.3-.815.283-1.269-.408.567-.55,1.282-.4,1.962-.414a.347.347,0,0,0,.122,0c.035-.014.088-.074.084-.081-.292-.447-.589-.89-.984-1.482l.282-1.877c-.336.037-.711-.027-.922.13-.229.171-.306.546-.447.828a11.36,11.36,0,0,1-1.28-1.046,2.784,2.784,0,0,0-2.477-.857l-.288,1.82.612.843c.763-.3.929-.33,1.1.19.144.447.465.478.745.653-.257.385-.5.631-1.064.42-.416-.156-.939.064-1.368-.259-.083-.063-.3.024-.444.075a4.839,4.839,0,0,1-3.827-.015,4.63,4.63,0,0,0-1.97-.566c-.618.012-1.237.007-1.855,0a25.443,25.443,0,0,1,8.065-4.976,26.267,26.267,0,0,1,6.331-1.553l.452.452.6-.16v-.395c.289-.023.572-.042.844-.055l.388.36c-.034.819.586.79,1.112.821.6.036,1.21.008,1.844.008,0-.29.009-.491,0-.691a1.555,1.555,0,0,0-.084-.465c.562.041,1.312.116,2.2.259.131.089.274.183.448.3-.52.385-.782.8-.565,1.373.849.349.867.393,1.717.048.378-.154.785-.4,1.082-.14a2.877,2.877,0,0,1,.568,1.093c.057.139,0,.324.012.485.076.741.151,1.482.251,2.22a.7.7,0,0,0,.23.388c.372.323.285.7.165,1.085-.148.48-.1.621.325.762a1.441,1.441,0,0,0,.444.007c.091.479.115.85-.239,1.17a.839.839,0,0,0-.19.523c-.028.365-.008.733-.008,1.113l2.267,2.608a1.311,1.311,0,0,0,.68-1.343,4.54,4.54,0,0,1-.006-.854.953.953,0,0,1,.936-1,1.544,1.544,0,0,0,1.37-.777c.316-.671.847-.765,1.434-.979a1.886,1.886,0,0,0,1.416-1.793,2.07,2.07,0,0,1,.234-.632c-.054-.087-.114-.166-.174-.246.19.154.38.311.568.473a24.736,24.736,0,0,1,6.494,8.959,22.4,22.4,0,0,1-1.757,21.178Z"/><path class="cls-3" d="M132.261,99.2c-.335-.117-.614-.273-.536-.658.093-.461-.215-.671-.474-.918a5.315,5.315,0,0,1-1.789-2.6h-2.577c-.216.216-.43.41-.618.626a1,1,0,0,0-.214.4c-.147.6.32,1.026.53,1.5a1.127,1.127,0,0,0,1.021.413c.49-.037.985-.009,1.544-.009,1.111,1.167,2.03,2.473,3.468,2.912l.728-.482A1.346,1.346,0,0,0,132.261,99.2Z"/><path class="cls-3" d="M132.142,104.066c-.621-.252-.957-.822-1.431-1.23a.541.541,0,0,0-.746-.012.509.509,0,0,0-.23.624,4.5,4.5,0,0,0,.787,1.359,8.925,8.925,0,0,0,1.651,1c0-.469-.113-.87.021-.987C132.577,104.486,132.17,104.078,132.142,104.066Z"/><path class="cls-3" d="M128.238,119.014a.771.771,0,0,0-.691.292c-.136.385.25.252.456.315.25.076.468.254.718.331a5.357,5.357,0,0,0,2.791.583c-.093-.212-.111-.374-.188-.41A20.932,20.932,0,0,0,128.238,119.014Z"/><path class="cls-3" d="M123.128,95.857a1.836,1.836,0,0,0,.5,1c.1.13.415.093.673.138V94.712c-.294.057-.573.029-.661.145A1.957,1.957,0,0,0,123.128,95.857Z"/><path class="cls-3" d="M125.211,94.5c-.739.573-.272,1.31-.4,2.091l.986-.976C125.791,95.152,125.917,94.615,125.211,94.5Z"/><path class="cls-3" d="M124.9,98.187l.645-.577-.58-.912C124.439,97.378,124.435,97.459,124.9,98.187Z"/><path class="cls-3" d="M125,93.2l-.628.309.628.543Z"/></g></g></g></svg>