<svg xmlns="http://www.w3.org/2000/svg" viewBox="0 0 598.486 217.667"><defs><style>.cls-1{fill:none;}.cls-2,.cls-5{fill:#cf0a2c;}.cls-3{fill:#55565a;}.cls-4{fill:#979698;}.cls-5{stroke:#cf0a2c;stroke-miterlimit:10;}</style></defs><title>Logotipo_MM</title><g id="Capa_2" data-name="Capa 2"><g id="Monitoreo_Movilidad_v110" data-name="Monitoreo &amp; Movilidad v110"><rect class="cls-1" width="598.486" height="217.667"/><path class="cls-2" d="M127.7,170.252V86.1l-26.221,59.176H78.563L52.342,86.1v84.152H9.375V10.5H56.308L90.021,85.65,123.954,10.5h46.713V170.252Z"/><path class="cls-3" d="M315.87,170.252V86.1l-26.221,59.176H266.732L240.512,86.1v84.152H197.545V10.5h46.933L278.19,85.65,312.123,10.5h46.713V170.252Z"/><path class="cls-2" d="M10.1,182.023h6.132l2.975,10.843c.635,2.395.943,4.61,1.27,6.512h.145c.326-1.9.635-4.117,1.27-6.512l3.066-10.843h6v28.018h-4.39v-9.268c0-5.692.29-10.663.49-12.631h-.345l-4.681,18.29H19.066l-4.717-18.29h-.345c.2,1.968.49,6.939.49,12.631v9.268H10.1Z"/><path class="cls-2" d="M35.416,200.921V191c0-8.448,4.808-9.219,7.71-9.219,2.794,0,7.638.64,7.638,9.219v9.924c0,8.317-4.935,9.367-7.638,9.367C40.115,210.288,35.416,209.336,35.416,200.921Zm10.45,1.657V189.832c0-3.592-.889-4.708-2.739-4.708-1.9,0-2.794,1.115-2.794,4.708v12.746c0,3.478.889,4.511,2.794,4.511C44.977,207.089,45.865,206.055,45.865,202.578Z"/><path class="cls-2" d="M55.212,182.023h3.81l7.511,18.75h.109a73.87,73.87,0,0,1-.49-8.53v-10.22H70.36v28.018H66.514l-7.474-18.258h-.145a90.568,90.568,0,0,1,.49,10.023v8.235H55.212Z"/><path class="cls-2" d="M75.66,182.023h4.7v28.018h-4.7Z"/><path class="cls-2" d="M88.524,185.37H83.535v-3.346H98.194v3.346H93.223v24.672h-4.7Z"/><path class="cls-2" d="M100.518,200.921V191c0-8.448,4.808-9.219,7.71-9.219,2.794,0,7.638.64,7.638,9.219v9.924c0,8.317-4.935,9.367-7.638,9.367C105.217,210.288,100.518,209.336,100.518,200.921Zm10.45,1.657V189.832c0-3.592-.889-4.708-2.739-4.708-1.9,0-2.794,1.115-2.794,4.708v12.746c0,3.478.889,4.511,2.794,4.511C110.079,207.089,110.968,206.055,110.968,202.578Z"/><path class="cls-2" d="M120.313,182.023h5.1c3.5,0,9.4.394,9.4,8.005v.705c0,4.249-1.4,6.922-4.009,8.1l4.971,11.2H130.8l-4.118-10.482h-1.76v10.482h-4.608Zm5.316,14.468c3.3,0,4.463-1.214,4.463-4.987V189.29c0-2.887-1.034-4.167-4.463-4.167h-.707v11.368Z"/><path class="cls-2" d="M139.329,182.023h11.483v3.346h-6.785v8.382h5.243V197.1h-5.243v9.6h6.966v3.346H139.329Z"/><path class="cls-2" d="M153.536,200.921V191c0-8.448,4.808-9.219,7.71-9.219,2.794,0,7.638.64,7.638,9.219v9.924c0,8.317-4.935,9.367-7.638,9.367C158.235,210.288,153.536,209.336,153.536,200.921Zm10.45,1.657V189.832c0-3.592-.889-4.708-2.739-4.708-1.9,0-2.794,1.115-2.794,4.708v12.746c0,3.478.889,4.511,2.794,4.511C163.1,207.089,163.986,206.055,163.986,202.578Z"/><path class="cls-4" d="M184.309,195.065l.49-.476-.617-1a14.129,14.129,0,0,1-2.413-7.037c0-3.806,3.084-6.2,6.857-6.2,4.935,0,6.241,3.051,6.241,5.052,0,4.052-3.374,6.972-4.88,8.563l-.4.41,4.68,7.693a11.979,11.979,0,0,0,.654-3.9c0-.722-.018-1.329-.073-1.919h3.792a10.666,10.666,0,0,1,.182,1.919A12.355,12.355,0,0,1,196.3,205.4l2.831,4.626h-4.862l-1.016-1.64a10.14,10.14,0,0,1-5.714,1.919c-4.644,0-7.91-2.526-7.91-6.988C179.628,199.592,182.712,196.722,184.309,195.065Zm4.227,12.024a4.7,4.7,0,0,0,3.156-1.247l-5.152-8.4a8.189,8.189,0,0,0-2.25,5.3A4.1,4.1,0,0,0,188.536,207.089Zm-.327-15.8c.962-1,2.7-2.707,2.7-5.167a2.2,2.2,0,0,0-2.286-2.428,2.524,2.524,0,0,0-2.558,2.854c0,1.476.508,2.772,1.832,5.036Z"/><path class="cls-3" d="M211.2,182.023h6.132l2.975,10.843c.635,2.395.943,4.61,1.27,6.512h.145c.327-1.9.635-4.117,1.27-6.512l3.066-10.843h6v28.018h-4.39v-9.268c0-5.692.29-10.663.49-12.631h-.345l-4.68,18.29h-2.975l-4.717-18.29H215.1c.2,1.968.49,6.939.49,12.631v9.268H211.2Z"/><path class="cls-3" d="M236.511,200.921V191c0-8.448,4.808-9.219,7.71-9.219,2.794,0,7.638.64,7.638,9.219v9.924c0,8.317-4.935,9.367-7.638,9.367C241.21,210.288,236.511,209.336,236.511,200.921Zm10.45,1.657V189.832c0-3.592-.889-4.708-2.739-4.708-1.9,0-2.794,1.115-2.794,4.708v12.746c0,3.478.889,4.511,2.794,4.511C246.071,207.089,246.96,206.055,246.96,202.578Z"/><path class="cls-3" d="M254,182.023h4.808l3.411,22.195h.2l3.429-22.195h4.79L265,210.042h-5.37Z"/><path class="cls-3" d="M273.634,182.023h4.7v28.018h-4.7Z"/><path class="cls-3" d="M283.632,182.023h4.7V206.7h6.4v3.346h-11.1Z"/><path class="cls-3" d="M297.712,182.023h4.7v28.018h-4.7Z"/><path class="cls-3" d="M307.71,182.023h4.88c4.463,0,10.177.213,10.177,9.941V200.1c0,9.744-5.714,9.941-10.177,9.941h-4.88Zm5.9,25.049c3.41,0,4.244-1.362,4.244-6.627v-8.694c0-5.266-.834-6.627-4.244-6.627h-1.2v21.949Z"/><path class="cls-3" d="M330.372,182.023h5.406l5.732,28.018h-4.753l-.852-5.02h-5.66l-.816,5.02h-4.772Zm4.989,19.8-2.177-13.96h-.2l-2.195,13.96Z"/><path class="cls-3" d="M344.507,182.023h4.88c4.463,0,10.177.213,10.177,9.941V200.1c0,9.744-5.714,9.941-10.177,9.941h-4.88Zm5.9,25.049c3.41,0,4.244-1.362,4.244-6.627v-8.694c0-5.266-.834-6.627-4.244-6.627h-1.2v21.949Z"/><path id="trazoLargo" class="cls-5" d="M488.609,10.539a99.644,99.644,0,0,0-69.234,27.85q-.792.76-1.565,1.54l16.907,16.907A76.054,76.054,0,1,1,475.679,186L456.46,205.216A99.991,99.991,0,1,0,488.609,10.539Z"/><path class="cls-2" d="M526.243,92.329a35.934,35.934,0,0,0-4.324-11.64,39.221,39.221,0,0,0-8.6-10.171,48.5,48.5,0,0,0-5.8-4.111A40.039,40.039,0,0,0,501.378,63a33.2,33.2,0,0,0-7.555-2.159,40.844,40.844,0,0,0-10.793-.54,40.385,40.385,0,0,0-9.714,2.159,42.155,42.155,0,0,0-7.226,3.373,57.766,57.766,0,0,0-7.613,5.437c-.157.135-.284.249-.4.349a37.357,37.357,0,0,0-2.991,3.018,36.616,36.616,0,0,0-8.536,16.881c-.46,2.143-.5,4.367-.739,6.553-.02.181.095,3.666.2,4.715a53.935,53.935,0,0,0,4.871,16.605,133.519,133.519,0,0,0,10.88,19.429l-26.637,26.637a76.073,76.073,0,0,1-13.646-91.12L404.148,57a100,100,0,0,0,31.478,138.308l2.752-2.752,36.574-36.252c2.961,3.54,6.005,7.021,9,10.54a19.63,19.63,0,0,0,1.725,1.608h1.336c1.789-1.9,3.712-3.7,5.343-5.713,5.123-6.32,10.36-12.574,15.138-19.124,3.979-5.454,12.948-18.764,16.977-31.222a44.623,44.623,0,0,0,2.179-11.057A35.771,35.771,0,0,0,526.243,92.329Zm-36.619,19.618a11.991,11.991,0,0,1-.268,1.419,3.6,3.6,0,0,0-.144,1.714,1.672,1.672,0,0,1-.1.77,4.508,4.508,0,0,0-.3,1.918,1.7,1.7,0,0,0,.522,1.139,21.1,21.1,0,0,1-3.041.209,22.389,22.389,0,0,1-10.737-2.8,21.136,21.136,0,0,1-4.7-3.562,20.073,20.073,0,0,1-3.618-4.994,19.084,19.084,0,0,1,1.278-19.542A20.11,20.11,0,0,1,470.275,86a2.522,2.522,0,0,1,.41.883h-1.014l1.18.9c-.37.3-.722.541-1.028.834s-.3.539.048.827a5.8,5.8,0,0,0,.817.482.681.681,0,0,1,.135,1.148c-.047.049-.088.122-.146.14-.437.138-.55.59-.836.873-.146.144-.149.433-.291.9,1-.755,1.763-1.46,2.907-1.2.3-.579.564-1.116.844-1.647.075-.141.173-.364.282-.378a2.082,2.082,0,0,1,1.782.3,5.107,5.107,0,0,1,1.208,1.434,5.938,5.938,0,0,0,1.32,1.907,2.575,2.575,0,0,1,.7,1.643,5.5,5.5,0,0,1,.008,1.324,1.679,1.679,0,0,0,.594,1.391,3.17,3.17,0,0,1,.82.884,8,8,0,0,0,2.074,2.608,3.639,3.639,0,0,0,1.458.9,10.809,10.809,0,0,0,1.442.221.763.763,0,0,1,.359.113,9.325,9.325,0,0,1,1.4,1.245,1.176,1.176,0,0,0,.731.467,4.055,4.055,0,0,0,.736.009c-.08.478-.125.89-.222,1.291a2.515,2.515,0,0,0,.186,2.308,4.7,4.7,0,0,0,1.118,1.476,2.845,2.845,0,0,1,.538,1.717C489.545,111.276,489.668,111.627,489.624,111.947Zm14.9-2.638a20.764,20.764,0,0,1-5.639,5.918,21.83,21.83,0,0,1-8.338,3.478l-.11-.094a.524.524,0,0,1-.163-.628c.169-.424.383-.83.579-1.244l-.424-.175a12.7,12.7,0,0,1,2.761-3.345c.24-.241.477-.485.723-.721a1.108,1.108,0,0,0,.437-.849.985.985,0,0,1,.809-.9,1.56,1.56,0,0,0,1.2-1.366,3.537,3.537,0,0,1,.449-1.553,1.951,1.951,0,0,0,.179-.836l-.722-.732a1.944,1.944,0,0,1-.5-.007,12.223,12.223,0,0,1-1.349-.436c-.287-.116-.246-.425-.315-.682a1.009,1.009,0,0,0-.488-.5c-.772-.429-1.543-.869-2.351-1.221a2.326,2.326,0,0,0-2.577.24c-.181.151-.3.227-.505.037-.063-.059-.232-.043-.339-.013-.426.12-.625.016-.645-.365-.016-.3,0-.6,0-.9l-1.023-.064a9.8,9.8,0,0,0-.014-1.088c-.013-.113-.19-.206-.3-.318l-.356.781a.744.744,0,0,1-1.08-.6,2.444,2.444,0,0,1,0-.955c.044-.293.309-.421.55-.575a2.742,2.742,0,0,1,1.671-.258c.409.354.786.683,1.167,1.008.02.017.066,0,.117,0l-.244-1.622c.316-.43,1.018-.685,1.212-1.393.028-.1.181-.2.3-.246a1.027,1.027,0,0,0,.685-.97c.053-.447.235-.964.934-.891.216.023.455-.176.647-.258.2-.434-.445-.742-.084-1.147,1.465-.01,1.576-.114,1.475-1.387-.431-.49-1-.834-1.043-1.628-.029-.544-.347-.6-.81-.283s-.473.323-.844-.175c-.08-.108-.257-.183-.275-.292-.069-.428-.523-.424-.743-.689-.1-.118-.433-.039-.62-.048-.384.491-.118.953-.034,1.371a2.593,2.593,0,0,1-.5,2.223,3.658,3.658,0,0,1-.52.39,7.4,7.4,0,0,0-.291-1.3,1.179,1.179,0,0,0-.508-.721,9.406,9.406,0,0,0-1.161-.659c-.523-.2-.634-.517-.522-1.089a10.622,10.622,0,0,1,1.477-1.189,2.993,2.993,0,0,0,1.528-3.128c-.412.084-.75-.062-1.113.2a.983.983,0,0,1-1.472-.178c-.019-.024-.121.019-.175.029l-.345,1.005-1.159-.222a1.638,1.638,0,0,0-.986.277c-.6.252-.679.236-1.057-.34.472-.459,1.068-.334,1.634-.345a.289.289,0,0,0,.1,0c.029-.012.074-.061.07-.067-.243-.372-.49-.742-.82-1.234l.235-1.564c-.28.031-.592-.023-.768.108-.191.142-.255.455-.372.69a9.464,9.464,0,0,1-1.066-.871,2.319,2.319,0,0,0-2.064-.714l-.24,1.516.51.7c.636-.251.774-.275.914.158.12.373.388.4.621.544-.214.321-.419.526-.886.35-.346-.13-.782.053-1.14-.216-.069-.052-.25.02-.37.062a4.032,4.032,0,0,1-3.188-.012,3.857,3.857,0,0,0-1.642-.471c-.515.01-1.031.006-1.546,0a21.2,21.2,0,0,1,6.719-4.146,21.884,21.884,0,0,1,5.275-1.294l.377.376.5-.133V79.1c.241-.019.476-.035.7-.046l.324.3c-.029.683.488.658.927.684.5.03,1.008.007,1.537.007,0-.241.008-.409,0-.576a1.3,1.3,0,0,0-.07-.388c.468.034,1.093.1,1.835.216l.373.251c-.433.321-.651.669-.471,1.144.707.291.722.328,1.43.04.315-.128.654-.332.9-.117a2.4,2.4,0,0,1,.473.91c.048.116,0,.27.01.4.063.617.126,1.235.209,1.85a.579.579,0,0,0,.191.323c.31.269.237.58.137.9-.123.4-.08.517.271.635a1.2,1.2,0,0,0,.37.006c.075.4.1.708-.2.975a.7.7,0,0,0-.158.436c-.024.3-.007.611-.007.927l1.889,2.173a1.093,1.093,0,0,0,.567-1.119,3.782,3.782,0,0,1,0-.712.794.794,0,0,1,.78-.83,1.287,1.287,0,0,0,1.141-.647c.263-.559.706-.638,1.195-.816a1.571,1.571,0,0,0,1.179-1.493,1.724,1.724,0,0,1,.195-.527c-.045-.073-.1-.138-.145-.205.158.128.316.259.474.394a20.609,20.609,0,0,1,5.411,7.464,18.666,18.666,0,0,1-1.464,17.645Z"/><path class="cls-2" d="M491.133,84.153c-.279-.1-.512-.228-.447-.548.078-.384-.179-.559-.395-.764a4.428,4.428,0,0,1-1.491-2.162h-2.147c-.18.18-.358.341-.515.522a.836.836,0,0,0-.179.334c-.122.5.267.854.442,1.25a.939.939,0,0,0,.85.344c.408-.031.821-.007,1.286-.007.925.972,1.691,2.06,2.89,2.426l.607-.4A1.122,1.122,0,0,0,491.133,84.153Z"/><path class="cls-2" d="M491.034,88.207c-.517-.21-.8-.685-1.192-1.025a.451.451,0,0,0-.622-.01.424.424,0,0,0-.192.52,3.748,3.748,0,0,0,.655,1.133,7.436,7.436,0,0,0,1.376.833c0-.391-.094-.725.018-.822C491.4,88.557,491.057,88.217,491.034,88.207Z"/><path class="cls-2" d="M487.781,100.661a.642.642,0,0,0-.575.243c-.113.321.208.21.38.262.208.063.39.212.6.276a4.464,4.464,0,0,0,2.325.486c-.078-.177-.093-.312-.157-.341A17.44,17.44,0,0,0,487.781,100.661Z"/><path class="cls-2" d="M483.524,81.367a1.53,1.53,0,0,0,.413.835c.087.108.346.077.56.115v-1.9c-.245.048-.477.024-.551.121A1.63,1.63,0,0,0,483.524,81.367Z"/><path class="cls-2" d="M485.259,80.237c-.616.478-.227,1.092-.33,1.742l.821-.813C485.743,80.78,485.848,80.333,485.259,80.237Z"/><path class="cls-2" d="M485,83.308l.538-.481-.483-.76C484.616,82.635,484.613,82.7,485,83.308Z"/><path class="cls-2" d="M485.087,79.151l-.523.258.523.453Z"/></g></g></svg>